<svg xmlns="http://www.w3.org/2000/svg" viewBox="0 0 760 1100" width="760" height="1100">
<defs>
  <linearGradient id="g_bai_resolved" x1="0" y1="0" x2="0" y2="1">
    <stop offset="0%" stop-color="#6d6476"/>
    <stop offset="60%" stop-color="#4d4258"/>
    <stop offset="100%" stop-color="#2a2430"/>
  </linearGradient>
  <radialGradient id="r_bai_resolved" cx="0.5" cy="0.28" r="0.75">
    <stop offset="0%" stop-color="#7fb7be" stop-opacity="0.20"/>
    <stop offset="100%" stop-color="#7fb7be" stop-opacity="0"/>
  </radialGradient>
</defs>
<g transform="rotate(0.0 380 700)">
  <!-- 肩胸 -->
  <path d="M120,1100 C120,880 236,760 380,760 C524,760 640,880 640,1100 Z" fill="url(#g_bai_resolved)"/>
  <!-- 脖子 -->
  <rect x="344" y="648" width="72" height="130" rx="30" fill="#3f3648"/>
  <!-- 头 -->
  <ellipse cx="380" cy="410" rx="104" ry="126" fill="#453b4f"/>
  <!-- 头发 -->
  <path d="M232,352 C232,232 302,182 380,182 C458,182 528,232 528,352 L534,700 C534,700 500,560 512,470 L470,500 C470,500 456,352 380,352 C304,352 290,500 290,500 L248,470 C260,560 226,700 226,700 Z" fill="#e8e4dc"/>
  <!-- 眉 -->
  <path d="M300,330.0 q30,-9.2 58,-1.6" stroke="#a29f9a" stroke-width="8" fill="none" stroke-linecap="round"/>
  <path d="M460,330.0 q-30,-9.2 -58,-1.6" stroke="#a29f9a" stroke-width="8" fill="none" stroke-linecap="round"/>
  <ellipse cx="330" cy="372" rx="26" ry="15" fill="#f2efe8" opacity="0.92"/>
<ellipse cx="430" cy="372" rx="26" ry="15" fill="#f2efe8" opacity="0.92"/>
<circle cx="332" cy="374" r="10" fill="#20242c"/><circle cx="432" cy="374" r="10" fill="#20242c"/>
  <!-- 鼻 / 嘴 -->
  <path d="M380,406 q8,26 -2,36" stroke="#26212c" stroke-width="4" fill="none" opacity="0.6"/>
  <path d="M354,478 q26,10 52,0" stroke="#1e1a23" stroke-width="5" fill="none" stroke-linecap="round"/>
  <path d="M226,300 C226,180 300,140 380,140 C460,140 534,180 534,300 L534,344 C534,344 470,300 380,300 C290,300 226,344 226,344 Z"
 fill="#7fb7be" opacity="0.30"/>
  <rect x="0" y="0" width="760" height="1100" fill="url(#r_bai_resolved)"/>
</g>
</svg>