<svg xmlns="http://www.w3.org/2000/svg" viewBox="0 0 760 1100" width="760" height="1100">
<defs>
  <linearGradient id="g_chen_cold" x1="0" y1="0" x2="0" y2="1">
    <stop offset="0%" stop-color="#7a6d64"/>
    <stop offset="60%" stop-color="#5e4e43"/>
    <stop offset="100%" stop-color="#332a24"/>
  </linearGradient>
  <radialGradient id="r_chen_cold" cx="0.5" cy="0.28" r="0.75">
    <stop offset="0%" stop-color="#b98a4b" stop-opacity="0.20"/>
    <stop offset="100%" stop-color="#b98a4b" stop-opacity="0"/>
  </radialGradient>
</defs>
<g transform="rotate(0.5 380 700)">
  <!-- 肩胸 -->
  <path d="M120,1100 C120,880 236,760 380,760 C524,760 640,880 640,1100 Z" fill="url(#g_chen_cold)"/>
  <!-- 脖子 -->
  <rect x="344" y="648" width="72" height="130" rx="30" fill="#4d3f36"/>
  <!-- 头 -->
  <ellipse cx="380" cy="410" rx="104" ry="126" fill="#54463c"/>
  <!-- 头发 -->
  <path d="M240,330 C240,236 306,192 380,192 C454,192 520,236 520,330 L524,356 L232,356 Z" fill="#4d4d4d"/>
  <!-- 眉 -->
  <path d="M300,331.0 q30,-9.6 58,-1.8" stroke="#353535" stroke-width="8" fill="none" stroke-linecap="round"/>
  <path d="M460,331.0 q-30,-9.6 -58,-1.8" stroke="#353535" stroke-width="8" fill="none" stroke-linecap="round"/>
  <ellipse cx="330" cy="372" rx="25" ry="11" fill="#f2efe8" opacity="0.90"/>
<ellipse cx="430" cy="372" rx="25" ry="11" fill="#f2efe8" opacity="0.90"/>
<circle cx="332" cy="376" r="9" fill="#20242c"/><circle cx="432" cy="376" r="9" fill="#20242c"/>
  <!-- 鼻 / 嘴 -->
  <path d="M380,406 q8,26 -2,36" stroke="#2f2721" stroke-width="4" fill="none" opacity="0.6"/>
  <path d="M354,478 q26,10 52,0" stroke="#251f1a" stroke-width="5" fill="none" stroke-linecap="round"/>
  <path d="M276,632 C320,676 440,676 484,632 L500,700 C440,742 320,742 260,700 Z" fill="#b98a4b" opacity="0.55"/>
  <rect x="0" y="0" width="760" height="1100" fill="url(#r_chen_cold)"/>
</g>
</svg>